<svg width="14" height="11" xmlns="http://www.w3.org/2000/svg">

 <g>
  <title>background</title>
  <rect fill="none" id="canvas_background" height="13" width="16" y="-1" x="-1"/>
 </g>
 <g>
  <title>Layer 1</title>
  <g id="surface1">
   <path id="svg_1" fill="none" stroke-width="2" stroke-linecap="round" stroke-linejoin="round" stroke="rgb(0%,0%,0%)" stroke-miterlimit="4" d="m8.5,2.47656l-2.19922,0c-0.60938,0 -1.10156,0.49219 -1.10156,1.09766l0,5.5c0,0.60937 0.49218,1.10156 1.10156,1.10156l5.5,0c0.60547,0 1.09766,-0.49219 1.09766,-1.10156l0,-2.19922m-2.19922,-5.5l3.30078,0m0,0l0,3.30078m0,-3.30078l-5.5,5.5"/>
   <path id="svg_2" fill="none" stroke-width="2" stroke-linecap="round" stroke-linejoin="round" stroke="rgb(100%,51.764706%,67.058824%)" stroke-miterlimit="4" d="m7.73047,1.71875l-2.19922,0c-0.60937,0 -1.10156,0.49219 -1.10156,1.10156l0,5.5c0,0.60547 0.49219,1.09766 1.10156,1.09766l5.5,0c0.60547,0 1.09766,-0.49219 1.09766,-1.09766l0,-2.20312m-2.19922,-5.5l3.30078,0m0,0l0,3.30078m0,-3.30078l-5.5,5.5"/>
  </g>
 </g>
</svg>