<svg width="13" height="10" xmlns="http://www.w3.org/2000/svg">
 <g>
  <title>background</title>
  <rect x="-1" y="-1" width="15" height="12" id="canvas_background" fill="none"/>
 </g>

 <g>
  <title>Layer 1</title>
  <g id="surface1">
   <path d="m11.11614,6.02149l0,1.66406c0,0.41406 -0.14453,0.76563 -0.42578,1.05859c-0.28125,0.29297 -0.625,0.44141 -1.02344,0.44141l-4.17578,0c-0.39844,0 -0.73828,-0.14844 -1.01953,-0.44141c-0.28516,-0.29296 -0.42578,-0.64453 -0.42578,-1.05859l0,-4.32812c0,-0.41407 0.14062,-0.76563 0.42578,-1.0625c0.28125,-0.29297 0.62109,-0.4375 1.01953,-0.4375l3.53516,0c0.04687,0 0.08593,0.01562 0.11718,0.04687c0.02735,0.03125 0.04297,0.07031 0.04297,0.12109l0,0.33204c0,0.04687 -0.01562,0.08593 -0.04297,0.11718c-0.03125,0.03125 -0.07031,0.04688 -0.11718,0.04688l-3.53516,0c-0.21875,0 -0.41016,0.08203 -0.56641,0.24609c-0.15625,0.16406 -0.23437,0.35938 -0.23437,0.58985l0,4.32812c0,0.23047 0.07812,0.42578 0.23437,0.58984c0.15625,0.16407 0.34766,0.24219 0.56641,0.24219l4.17578,0c0.22266,0 0.41016,-0.07812 0.57031,-0.24219c0.15625,-0.16406 0.23438,-0.35937 0.23438,-0.58984l0,-1.66406c0,-0.05078 0.01562,-0.08985 0.04687,-0.1211c0.02735,-0.03125 0.06641,-0.04687 0.11328,-0.04687l0.32032,0c0.04687,0 0.08593,0.01562 0.11718,0.04687c0.03125,0.03125 0.04688,0.07032 0.04688,0.1211zm1.92578,-4.4961l0,2.66407c0,0.08984 -0.03125,0.16797 -0.09375,0.23437c-0.06641,0.06641 -0.14062,0.09766 -0.22656,0.09766c-0.08985,0 -0.16406,-0.03125 -0.22656,-0.09766l-0.88282,-0.91797l-3.27343,3.39453c-0.03516,0.03516 -0.07032,0.05079 -0.11719,0.05079c-0.04297,0 -0.08203,-0.01563 -0.11328,-0.05079l-0.57422,-0.59375c-0.03125,-0.03515 -0.04688,-0.07421 -0.04688,-0.12109c0,-0.04297 0.01563,-0.08203 0.04688,-0.11719l3.27344,-3.39453l-0.88282,-0.91406c-0.0625,-0.06641 -0.09375,-0.14453 -0.09375,-0.23438c0,-0.08984 0.03125,-0.16796 0.09375,-0.23437c0.0625,-0.06641 0.14063,-0.10156 0.22657,-0.10156l2.57031,0c0.08594,0 0.16015,0.03515 0.22656,0.10156c0.0625,0.06641 0.09375,0.14453 0.09375,0.23437zm0,0" fill="#000000" fill-rule="nonzero" id="svg_1" opacity="0.72"/>
   <path d="m10.67864,5.64649l0,1.66406c0,0.41406 -0.14453,0.76563 -0.42578,1.05859c-0.28125,0.29297 -0.625,0.44141 -1.02344,0.44141l-4.17578,0c-0.39844,0 -0.73828,-0.14844 -1.01953,-0.44141c-0.28516,-0.29296 -0.42578,-0.64453 -0.42578,-1.05859l0,-4.32812c0,-0.41407 0.14062,-0.76563 0.42578,-1.0625c0.28125,-0.29297 0.62109,-0.4375 1.01953,-0.4375l3.53516,0c0.04687,0 0.08593,0.01562 0.11718,0.04687c0.02735,0.03125 0.04297,0.07031 0.04297,0.12109l0,0.33204c0,0.04687 -0.01562,0.08593 -0.04297,0.11718c-0.03125,0.03125 -0.07031,0.04688 -0.11718,0.04688l-3.53516,0c-0.21875,0 -0.41016,0.08203 -0.56641,0.24609c-0.15625,0.16406 -0.23437,0.35938 -0.23437,0.58985l0,4.32812c0,0.23047 0.07812,0.42578 0.23437,0.58984c0.15625,0.16407 0.34766,0.24219 0.56641,0.24219l4.17578,0c0.22266,0 0.41016,-0.07812 0.57031,-0.24219c0.15625,-0.16406 0.23438,-0.35937 0.23438,-0.58984l0,-1.66406c0,-0.05078 0.01562,-0.08985 0.04687,-0.1211c0.02735,-0.03125 0.06641,-0.04687 0.11328,-0.04687l0.32032,0c0.04687,0 0.08593,0.01562 0.11718,0.04687c0.03125,0.03125 0.04688,0.07032 0.04688,0.1211zm1.92578,-4.4961l0,2.66407c0,0.08984 -0.03125,0.16797 -0.09375,0.23437c-0.06641,0.06641 -0.14062,0.09766 -0.22656,0.09766c-0.08985,0 -0.16406,-0.03125 -0.22656,-0.09766l-0.88282,-0.91797l-3.27343,3.39453c-0.03516,0.03516 -0.07032,0.05079 -0.11719,0.05079c-0.04297,0 -0.08203,-0.01563 -0.11328,-0.05079l-0.57422,-0.59375c-0.03125,-0.03515 -0.04688,-0.07421 -0.04688,-0.12109c0,-0.04297 0.01563,-0.08203 0.04688,-0.11719l3.27344,-3.39453l-0.88282,-0.91406c-0.0625,-0.06641 -0.09375,-0.14453 -0.09375,-0.23438c0,-0.08984 0.03125,-0.16796 0.09375,-0.23437c0.0625,-0.06641 0.14063,-0.10156 0.22657,-0.10156l2.57031,0c0.08594,0 0.16015,0.03515 0.22656,0.10156c0.0625,0.06641 0.09375,0.14453 0.09375,0.23437zm0,0" fill="rgb(100%,51.764706%,67.058824%)" fill-rule="nonzero" id="svg_2"/>
  </g>
 </g>
</svg>